<mxfile host="app.diagrams.net" modified="2023-05-09T05:58:11.879Z" agent="Mozilla/5.0 (Windows NT 10.0; WOW64) AppleWebKit/537.36 (KHTML, like Gecko) Chrome/108.0.5359.95 Safari/537.36" version="21.2.9" etag="i6U3F7DgsnM46TpZA6KJ" type="github">
  <diagram name="第 1 页" id="W1yIR3J3UB4BYGqgmhYi">
    <mxGraphModel>
      <root>
        <mxCell id="0" />
        <mxCell id="1" parent="0" />
      </root>
    </mxGraphModel>
  </diagram>
</mxfile>
